<svg width="2244" height="726" viewBox="0 0 2244 726" fill="none" xmlns="http://www.w3.org/2000/svg">
<path d="M1099.2 664.8C1052 664.8 1015.2 650.4 988.8 621.6C963.2 594.4 950.4 556.8 950.4 508.8C950.4 451.2 967.6 400.6 1002 357C974 336.2 960 313.6 960 289.2C960 257.6 979.8 241.8 1019.4 241.8C1043 241.8 1065.8 248.6 1087.8 262.2C1089.4 262.6 1090.2 264.2 1090.2 267C1090.2 267.8 1089.8 268.2 1089 268.2C1088.6 268.2 1087.4 267.6 1085.4 266.4C1065 255.6 1045.8 250.2 1027.8 250.2C990.2 250.2 971.4 265 971.4 294.6C971.4 314.6 983.2 333.6 1006.8 351.6C1048.4 302.8 1109.8 278.4 1191 278.4C1218.2 278.4 1241.8 282.2 1261.8 289.8C1289 299.8 1304.8 315.8 1309.2 337.8C1309.6 338.6 1309.8 340.2 1309.8 342.6C1309.8 357.8 1300.2 371.4 1281 383.4C1293.4 404.6 1299.6 430.6 1299.6 461.4C1299.6 496.6 1291.4 528.4 1275 556.8C1255.8 589.2 1231.2 615 1201.2 634.2C1168.8 654.6 1134.8 664.8 1099.2 664.8ZM1158.6 399.6C1200.2 399.6 1235 392.6 1263 378.6C1253 358.2 1238.8 348 1220.4 348C1219.6 348 1218.6 348.2 1217.4 348.6C1216.2 348.6 1214.8 348.8 1213.2 349.2C1211.6 349.6 1210.2 349.8 1209 349.8C1207.8 349.8 1206.8 349.8 1206 349.8C1201.6 349.8 1199.4 348.6 1199.4 346.2C1199.4 342.6 1204.4 340.8 1214.4 340.8C1238.4 340.8 1258.2 351.2 1273.8 372C1288.2 362.4 1295.4 351.8 1295.4 340.2C1295.4 303.8 1262.6 285.6 1197 285.6C1131.4 285.6 1077.8 313.8 1036.2 370.2C1055 379.8 1074.6 387.2 1095 392.4C1115.4 397.2 1136.6 399.6 1158.6 399.6ZM1109.4 655.8C1138.6 655.8 1168.2 643 1198.2 617.4C1223.4 595.8 1243.8 569.6 1259.4 538.8C1271.4 514.8 1277.4 485.4 1277.4 450.6C1277.4 427.4 1274.4 407.4 1268.4 390.6C1256 395.8 1241.8 400 1225.8 403.2C1210.2 406 1193 407.4 1174.2 407.4C1121 407.4 1073.6 396.8 1032 375.6C1002.8 416.8 988.2 463.6 988.2 516C988.2 553.6 997 584.6 1014.6 609C1033.4 635 1061.2 650.4 1098 655.2C1099.6 655.2 1101.4 655.2 1103.4 655.2C1105.4 655.6 1107.4 655.8 1109.4 655.8ZM1391.18 638.4C1367.18 638.4 1355.18 627.8 1355.18 606.6C1355.18 589.8 1361.78 570.6 1374.98 549C1379.38 541.4 1391.58 524.4 1411.58 498C1424.78 480.4 1431.38 468 1431.38 460.8C1431.38 454 1425.78 450.6 1414.58 450.6C1406.98 450.6 1398.58 450.8 1389.38 451.2C1380.58 451.6 1373.38 452 1367.78 452.4C1366.58 458.8 1364.78 466.2 1362.38 474.6C1359.98 483 1357.18 491.8 1353.98 501C1351.98 506.6 1348.78 514.2 1344.38 523.8C1340.38 533.4 1334.98 543.6 1328.18 554.4C1326.98 556 1325.98 556.8 1325.18 556.8C1324.78 556.8 1324.58 556.4 1324.58 555.6C1324.58 553.6 1325.38 551 1326.98 547.8C1330.18 542.2 1333.78 535.4 1337.78 527.4C1341.78 519 1345.58 509.8 1349.18 499.8C1352.38 491 1355.18 481.8 1357.58 472.2C1360.38 462.2 1361.98 455.4 1362.38 451.8C1352.78 445.8 1347.98 436.8 1347.98 424.8C1347.98 411.2 1352.78 404.4 1362.38 404.4C1369.18 404.4 1372.57 410.6 1372.57 423C1372.57 425.8 1372.18 429.2 1371.38 433.2C1370.58 437.2 1369.58 442 1368.38 447.6C1373.98 447.2 1382.78 446.8 1394.78 446.4C1407.18 445.6 1418.98 445.2 1430.18 445.2C1450.58 445.2 1460.77 451.4 1460.77 463.8C1460.77 477 1444.98 504.2 1413.38 545.4C1406.58 555.4 1398.98 566.8 1390.58 579.6C1382.58 592 1378.58 604.8 1378.58 618C1378.58 621.6 1379.38 625 1380.98 628.2C1382.58 631.4 1385.98 633 1391.18 633C1408.38 633 1427.38 622.6 1448.18 601.8C1458.58 591.4 1468.18 580.2 1476.98 568.2C1485.78 556.2 1493.78 542.8 1500.98 528C1502.58 524.8 1503.98 523.2 1505.18 523.2C1505.98 523.2 1506.38 523.8 1506.38 525C1506.38 527 1505.78 529.2 1504.58 531.6C1497.78 545.6 1489.58 559.2 1479.98 572.4C1470.38 585.2 1459.78 597.4 1448.18 609C1428.58 628.6 1409.58 638.4 1391.18 638.4ZM1536.64 642C1521.04 642 1508.24 637.6 1498.24 628.8C1488.24 620 1483.24 606.2 1483.24 587.4C1483.24 572.2 1486.24 556.2 1492.24 539.4C1498.24 522.6 1507.24 506.2 1519.24 490.2C1545.24 455.8 1572.24 438.6 1600.24 438.6C1626.24 438.6 1639.24 450.4 1639.24 474C1639.24 482.8 1636.44 492.4 1630.84 502.8C1624.04 514.4 1616.64 520.2 1608.64 520.2C1602.64 520.2 1599.64 517.8 1599.64 513C1599.64 507.8 1605.04 501.4 1615.84 493.8C1626.64 485.8 1632.04 476.8 1632.04 466.8C1632.04 453.2 1625.04 446.4 1611.04 446.4C1596.24 446.4 1579.84 457.2 1561.84 478.8C1549.04 494.8 1538.24 512 1529.44 530.4C1525.44 538.4 1521.44 549 1517.44 562.2C1513.44 575 1511.44 587.4 1511.44 599.4C1511.44 609.4 1513.64 618 1518.04 625.2C1522.44 632.4 1530.24 636 1541.44 636C1551.84 636 1562.64 633.2 1573.84 627.6C1585.04 621.6 1594.64 614.6 1602.64 606.6C1609.44 599.8 1617.04 590.6 1625.44 579C1634.24 567 1643.04 552.4 1651.84 535.2C1653.04 533.2 1654.24 532.2 1655.44 532.2C1657.84 532.2 1657.84 534.2 1655.44 538.2C1648.64 551.8 1641.24 564.8 1633.24 577.2C1625.64 589.6 1615.44 601.6 1602.64 613.2C1595.04 620.8 1585.44 627.6 1573.84 633.6C1562.24 639.2 1549.84 642 1536.64 642ZM1612.14 645.6L1610.94 645C1634.94 565 1666.74 488 1706.34 414C1763.94 306.4 1818.34 252.6 1869.54 252.6C1888.34 252.6 1897.74 261.8 1897.74 280.2C1897.74 302.2 1885.34 327.4 1860.54 355.8C1839.74 378.6 1817.54 397 1793.94 411C1775.54 421.8 1754.34 431.4 1730.34 439.8C1726.74 441 1724.14 441.4 1722.54 441C1710.14 463 1698.94 484.4 1688.94 505.2C1679.34 526 1670.74 546.4 1663.14 566.4C1679.94 534.4 1697.94 507.4 1717.14 485.4C1744.74 453.8 1770.74 438 1795.14 438C1815.14 438 1825.14 445.2 1825.14 459.6C1825.14 473.6 1811.74 499.8 1784.94 538.2C1761.34 571.4 1749.54 597.8 1749.54 617.4C1749.54 627.4 1753.94 632.4 1762.74 632.4C1769.54 632.4 1777.34 630.2 1786.14 625.8C1794.94 621.4 1804.14 614.2 1813.74 604.2C1826.14 590.6 1835.54 578 1841.94 566.4C1848.74 554.8 1854.74 544.2 1859.94 534.6C1861.14 532.6 1862.34 531.8 1863.54 532.2C1864.74 532.6 1864.94 533.8 1864.14 535.8C1858.14 548.2 1850.94 561.2 1842.54 574.8C1834.54 588 1826.14 599.2 1817.34 608.4C1806.14 620.4 1794.94 628.6 1783.74 633C1772.94 637.4 1762.34 639.6 1751.94 639.6C1730.74 639.6 1720.14 629.4 1720.14 609C1720.14 591 1727.14 570.2 1741.14 546.6C1744.34 541.4 1749.14 534.2 1755.54 525C1762.34 515.8 1770.74 504.6 1780.74 491.4C1794.74 472.6 1801.74 460.4 1801.74 454.8C1801.74 447.6 1797.14 444 1787.94 444C1770.34 444 1749.34 457.4 1724.94 484.2C1708.54 502.2 1693.34 523.2 1679.34 547.2C1672.94 558 1666.34 570.8 1659.54 585.6C1652.74 600.4 1645.54 617.2 1637.94 636L1636.74 636.6C1633.54 634.6 1630.54 633.6 1627.74 633.6C1620.54 633.6 1615.34 637.6 1612.14 645.6ZM1725.54 435.6C1727.14 435.6 1728.74 435.4 1730.34 435C1739.54 433 1748.94 429.8 1758.54 425.4C1768.54 421 1778.54 415.6 1788.54 409.2C1799.34 402 1810.14 393.8 1820.94 384.6C1831.74 375 1842.54 364.2 1853.34 352.2C1879.74 323.4 1892.94 299 1892.94 279C1892.94 265 1885.94 258 1871.94 258C1853.54 258 1826.34 282.8 1790.34 332.4C1779.54 347.6 1768.54 363.8 1757.34 381C1746.54 398.2 1735.94 416.4 1725.54 435.6ZM1952.16 408C1939.36 408 1932.96 401.8 1932.96 389.4C1932.96 375.8 1939.16 369 1951.56 369C1964.36 369 1970.76 375.2 1970.76 387.6C1970.76 401.2 1964.56 408 1952.16 408ZM1881.36 642C1854.96 642 1841.76 627.4 1841.76 598.2C1841.76 577 1847.96 554.6 1860.36 531L1905.36 442.8H1907.16C1908.36 444.4 1910.76 445.2 1914.36 445.2C1921.96 445.2 1931.96 440.6 1944.36 431.4L1945.56 432.6L1894.56 531.6C1873.36 572.4 1862.76 600.8 1862.76 616.8C1862.76 624 1864.76 629 1868.76 631.8C1872.76 634.6 1877.36 636 1882.56 636C1888.16 636 1893.56 634.8 1898.76 632.4C1904.36 630 1909.16 627.4 1913.16 624.6C1923.96 616.2 1932.96 606.6 1940.16 595.8C1947.76 584.6 1954.36 573.4 1959.96 562.2C1965.56 551 1970.56 541.6 1974.96 534C1976.16 532 1977.36 531.4 1978.56 532.2C1979.76 532.6 1979.96 533.8 1979.16 535.8C1971.16 552.6 1962.36 569.8 1952.76 587.4C1943.16 605 1930.96 619 1916.16 629.4C1910.96 633 1905.36 636 1899.36 638.4C1893.76 640.8 1887.76 642 1881.36 642ZM2001.59 639C1987.19 639 1976.99 633 1970.99 621C1964.99 609 1961.99 595.8 1961.99 581.4C1961.99 566.6 1964.19 553.8 1968.59 543C1974.19 528.2 1982.39 513.2 1993.19 498C2003.99 482.4 2016.99 469.4 2032.19 459C2047.39 448.2 2063.99 442.8 2081.99 442.8C2101.99 442.8 2111.99 454.4 2111.99 477.6C2111.99 489.2 2109.59 501.6 2104.79 514.8L2202.59 322.8H2203.79C2205.39 324.4 2208.19 325.2 2212.19 325.2C2220.59 325.2 2230.59 320.6 2242.19 311.4L2243.39 312.6L2153.39 484.8C2118.59 551.6 2101.19 595.4 2101.19 616.2C2101.19 627 2105.59 632.4 2114.39 632.4C2119.19 632.4 2124.99 630.6 2131.79 627C2138.59 623.4 2145.79 617.4 2153.39 609C2162.99 597.8 2171.19 587.2 2177.99 577.2C2185.19 566.8 2193.39 552.8 2202.59 535.2C2203.79 533.2 2204.99 532.2 2206.19 532.2C2208.59 532.2 2208.59 534.2 2206.19 538.2C2198.99 551.8 2191.19 565.4 2182.79 579C2174.79 592.2 2164.99 604.6 2153.39 616.2C2138.99 630.6 2125.59 637.8 2113.19 637.8C2103.19 637.8 2094.79 635 2087.99 629.4C2081.59 623.8 2078.39 614.2 2078.39 600.6C2078.39 587.8 2080.59 573.6 2084.99 558C2056.99 612 2029.19 639 2001.59 639ZM2005.79 633.6C2016.59 633.6 2029.39 625.6 2044.19 609.6C2058.99 593.6 2074.39 570.4 2090.39 540C2091.99 536.8 2093.99 531.8 2096.39 525C2099.19 517.8 2101.59 510 2103.59 501.6C2105.99 492.8 2107.19 484.6 2107.19 477C2107.19 469 2105.59 462.4 2102.39 457.2C2099.19 452 2093.59 449.4 2085.59 449.4C2077.99 449.4 2069.79 452.2 2060.99 457.8C2052.59 463 2043.79 472 2034.59 484.8C2019.39 505.2 2008.39 525 2001.59 544.2C2000.79 546.6 1999.39 551.4 1997.39 558.6C1995.39 565.4 1993.59 573.2 1991.99 582C1990.39 590.4 1989.59 598.6 1989.59 606.6C1989.59 614.2 1990.79 620.6 1993.19 625.8C1995.59 631 1999.79 633.6 2005.79 633.6Z" fill="black"/>
<g clip-path="url(#clip0_217_45)">
<path fill-rule="evenodd" clip-rule="evenodd" d="M379 723C363 734 350 711 334 715C334 715 321 730 315 718C310 706 346 688 316 676C301 670 299 691 299 691C299 691 309 727 278 718C246 709 282 683 272 677C263 672 264 681 254 684C240 688 230 662 243 648C245 646 263 646 260 630C258 617 242 638 236 636C236 636 228 634 226 622C220 599 247 597 241 591C236 585 254 574 259 570C265 566 274 568 279 565C283 562 285 558 272 550C260 543 263 534 263 527C263 521 276 508 285 507C295 507 297 507 295 498C293 489 300 485 300 485C300 485 301 485 311 480C321 475 323 486 331 489C340 492 352 473 359 472C362 471 364 472 367 473C366 483 368 491 374 498C357 502 340 503 325 498C339 504 357 504 376 500L377 501C349 511 318 517 294 510C315 519 346 515 376 504C347 522 311 538 282 535C308 542 347 526 380 505C354 531 316 560 285 564C313 564 352 537 383 505C360 537 326 576 293 585C323 581 359 544 385 506L386 507C367 543 334 592 300 607C331 598 366 552 388 508C376 545 345 613 308 635C340 620 373 561 389 511C384 546 357 629 319 659C353 638 382 564 392 510C391 539 369 635 330 670C364 646 390 564 394 509H395C396 536 383 637 348 677C378 653 392 571 397 520C393 575 403 652 429 682C402 642 396 559 399 522C401 576 419 653 449 680C414 641 400 546 401 515C407 570 433 646 465 669C426 634 404 539 403 510C413 564 442 637 476 658C438 628 411 546 406 511C422 561 455 620 487 634C451 612 420 547 407 509H408C430 553 465 597 495 606C462 592 429 544 410 509L412 508C438 545 473 580 502 584C470 575 436 539 414 508L415 507C445 538 482 563 510 562C479 559 443 532 417 506H418C450 526 487 540 513 534C485 537 449 522 421 504C451 514 481 518 501 509C479 516 450 511 424 502L425 501C442 504 458 503 470 497C457 501 442 501 427 499C434 492 437 481 435 471C442 473 454 490 462 487C470 484 472 473 483 477C491 481 501 482 499 495C497 504 500 504 509 504C518 504 532 517 532 523C532 529 535 539 523 546C511 554 513 559 517 562C522 564 531 562 537 565C542 569 561 580 556 586C549 592 577 594 572 617C570 629 562 630 562 630C556 633 540 613 538 625C536 642 554 641 555 643C557 645 564 654 562 663C560 672 555 681 545 679C536 676 538 670 528 673C518 676 530 688 530 688C530 688 548 713 518 712C481 710 517 661 483 673C455 683 492 704 486 715C480 724 467 713 467 713C467 713 458 711 446 719C415 741 407 695 400 677C395 691 389 715 379 723Z" fill="black"/>
<path fill-rule="evenodd" clip-rule="evenodd" d="M403 399C437 402 453 454 455 481C449 477 441 467 434 467C424 465 418 477 413 476C406 451 404 425 403 399Z" fill="black"/>
<path fill-rule="evenodd" clip-rule="evenodd" d="M338 483C345 454 360 404 395 400C394 425 390 451 383 476C379 478 376 475 373 473C369 470 365 467 359 468C353 469 343 479 338 483Z" fill="black"/>
<path fill-rule="evenodd" clip-rule="evenodd" d="M432 470C446 514 364 521 369 475C387 489 388 467 397 467C399 467 403 470 406 473C420 488 422 472 432 470Z" fill="black"/>
<path fill-rule="evenodd" clip-rule="evenodd" d="M384 398C386 390 387 381 387 375C390 327 296 199 267 197C258 197 243 173 231 193C208 233 210 170 191 194C183 204 168 164 166 195C165 204 119 174 122 187C123 193 126 194 129 197C131 201 121 209 112 210C103 210 1.0001 196 7.0001 239C11.0001 262 -6.9999 271 3.0001 281C11.0001 288 22.0001 300 33.0001 302C57.0001 305 59.0001 340 64.0001 353C64.0001 353 70.0001 360 78.0001 360C86.0001 360 82.0001 373 82.0001 373C74.0001 399 95.0001 430 119 441C156 456 135 474 153 474C164 474 174 468 179 475C185 482 192 485 202 487C213 489 235 486 239 486C243 485 254 468 271 464C288 460 317 461 331 452C335 450 340 447 346 444C347 440 349 437 350 434C340 435 314 446 307 455C312 447 322 441 337 435C293 439 247 447 217 481C239 448 282 437 335 432C283 428 216 427 179 457C210 426 278 425 343 430C288 418 197 406 150 435C184 408 262 412 329 424C276 408 178 391 124 414C167 389 263 400 333 422C280 399 165 365 106 382C166 363 269 390 339 421C287 394 166 346 102 360C149 344 254 374 324 410C269 377 164 326 104 333C156 321 273 373 341 416C295 380 184 310 116 310C165 305 257 352 321 398C253 335 138 231 70.0001 250C142 227 264 339 327 398C267 331 186 221 145 229C181 214 274 329 328 392C286 332 251 240 211 229C250 228 296 344 339 400C305 341 291 249 255 227C292 240 318 369 353 413C322 353 315 256 292 241C317 251 332 364 357 415C337 361 339 296 329 273C340 287 343 361 358 409C351 363 364 337 353 313C363 329 357 365 361 405C366 381 376 372 375 346C378 365 370 379 366 402C372 386 380 380 383 378C377 383 371 391 366 407C370 403 374 398 380 392C373 401 368 408 365 414C370 407 376 402 384 398Z" fill="black"/>
<path fill-rule="evenodd" clip-rule="evenodd" d="M417 398C416 391 415 384 414 379C412 331 506 203 535 201C544 201 549 191 549 191C549 191 564 186 570 198C577 209 572 211 576 212C585 214 600 185 611 198C619 208 633 168 636 199C637 209 683 178 680 191C679 196 661 213 690 214C699 214 743 200 760 211C818 250 781 240 796 264C809 286 785 303 769 306C758 307 742 330 741 340C740 351 738 364 724 364C712 364 729 396 714 415C702 430 697 438 683 445C646 460 667 478 649 478C638 478 628 472 623 479C617 486 610 489 599 491C589 493 567 490 563 490C559 489 548 472 531 468C514 464 485 465 470 456C465 453 459 449 452 445C451 442 449 439 448 436H453C468 441 486 447 495 457C490 449 479 443 464 437C508 441 555 449 585 483C562 450 520 439 467 434C519 430 585 429 622 459C592 428 523 427 459 432C514 420 605 409 652 437C618 410 539 414 473 426C526 410 624 393 678 416C634 391 539 402 469 424C522 401 637 368 695 384C636 365 532 392 463 424C514 396 636 349 700 363C653 347 548 377 477 412C533 379 638 329 698 336C646 324 529 376 461 419C507 382 618 313 685 312C637 307 544 355 480 400C549 337 663 234 731 253C660 229 538 341 475 400C535 333 615 224 656 232C620 217 527 331 473 394C516 334 551 242 591 231C551 231 505 346 463 402C497 344 510 252 546 229C509 242 483 371 449 416C479 355 486 258 509 243C485 254 469 367 445 417C465 363 462 298 473 275C462 290 459 363 443 412C450 365 438 339 449 315C438 331 444 367 440 407C435 383 426 374 427 348C424 367 431 381 436 404C429 388 421 383 418 380C424 386 431 394 435 410C432 405 427 401 422 395C429 403 433 409 437 415C434 411 422 401 417 398Z" fill="black"/>
<path fill-rule="evenodd" clip-rule="evenodd" d="M554 634C640 704 810 720 752 675C733 660 717 636 718 608C718 571 673 514 631 479C625 479 619 490 609 493C655 524 693 558 701 607C690 558 650 524 605 494C600 495 595 495 589 495C642 540 684 582 695 614C683 587 643 545 584 495C580 495 575 495 571 495C631 558 678 620 712 633C675 623 630 561 566 494C552 493 547 473 521 470C612 545 679 644 724 660C677 648 613 552 516 469C485 466 480 466 454 451C457 461 458 472 459 483C461 483 462 482 464 481C465 480 466 479 467 478C480 465 505 477 503 495C502 498 502 499 503 499C509 503 520 496 535 518C597 580 670 694 745 694C673 698 596 591 536 527C537 530 537 534 535 538C585 596 629 676 686 681C630 679 585 603 533 542C532 544 529 547 525 549C520 552 518 554 518 556C518 556 519 557 520 558C521 558 523 559 526 559C531 559 535 559 539 562V561L541 563C545 565 551 569 555 573C568 585 552 588 562 588C570 591 577 607 576 615C590 632 605 646 625 656C604 648 589 635 575 620C574 624 573 626 571 628C578 634 585 640 594 645C585 641 577 636 569 630C561 637 559 633 554 634ZM734 674C671 677 575 518 491 469C581 536 676 681 734 674Z" fill="black"/>
<path fill-rule="evenodd" clip-rule="evenodd" d="M230 635C130 686 -4.99993 691 49.0001 653C69.0001 639 86.0001 617 88.0001 589C90.0001 555 130 508 170 475C177 471 180 490 206 491C168 513 138 540 126 579C140 540 172 513 211 491C220 492 230 491 240 490C240 490 146 551 131 587C148 558 204 515 282 466C285 465 289 465 292 465C214 525 151 594 112 603C154 598 214 529 299 464C320 462 326 460 344 449L343 452C267 496 140 620 97.0001 629C140 624 204 554 292 489C291 493 293 502 291 502C282 504 281 501 269 511C263 517 260 521 259 530C256 535 126 649 85.0001 642C124 652 190 591 259 534C259 537 260 540 261 543C200 596 132 661 72.0001 652C131 663 203 601 264 548C267 551 270 553 274 555L266 563C260 565 232 581 238 591C240 596 177 647 132 651C163 654 192 634 223 611C221 616 221 619 222 624C214 629 206 634 196 637C206 634 215 631 223 626C225 631 227 634 230 635ZM277 557C281 562 275 562 272 563L277 557ZM246 486C255 476 262 469 276 467C265 473 255 479 246 486ZM342 456C340 462 338 469 336 475C333 477 330 478 327 480C322 476 320 473 313 475C322 468 332 462 342 456ZM336 477L334 485C332 485 330 483 328 482L336 477Z" fill="black"/>
<path fill-rule="evenodd" clip-rule="evenodd" d="M314 231C311 107 426 -58 420 20C418 45 425 72 445 91C473 116 485 189 482 243C474 252 467 262 460 271C468 214 468 160 436 120C467 163 465 219 457 277C453 282 449 288 445 294C448 217 445 151 427 120C440 149 445 213 443 298C440 302 438 305 436 309C429 215 410 131 424 95C406 131 426 214 433 314C429 323 424 332 421 341C423 224 393 111 411 68C389 111 419 221 418 348C410 368 410 378 413 398C405 395 397 395 389 397C391 384 393 375 390 361C413 287 344 103 405 35C342 99 401 284 389 358C388 352 386 346 383 340C383 254 332 142 373 85C331 136 373 241 380 331C376 324 372 316 368 307C359 244 336 198 349 145C331 196 352 236 364 300C359 292 353 283 347 274C338 240 330 210 337 176C328 207 332 234 341 265C332 253 323 241 314 231ZM407 51C363 97 420 274 402 369C411 257 363 90 407 51Z" fill="black"/>
</g>
<defs>
<clipPath id="clip0_217_45">
<rect width="800" height="907.5" fill="white"/>
</clipPath>
</defs>
</svg>
